<svg width="144" height="36" viewBox="0 0 144 36" fill="none" xmlns="http://www.w3.org/2000/svg">
<g clip-path="url(#clip0_2221_1486)">
<path d="M108.903 18.59C109.151 18.5609 109.413 18.4881 109.661 18.4006C110.214 18.2112 110.681 17.949 111.06 17.6285C111.438 17.2934 111.744 16.9146 111.948 16.5067C112.152 16.0842 112.24 15.6471 112.24 15.1955C112.24 14.5107 112.079 13.9134 111.73 13.4326C111.38 12.9518 110.914 12.573 110.316 12.3108C109.719 12.0486 109.064 11.932 108.306 11.932H104.212C103.892 11.932 103.629 12.1942 103.629 12.5148V23.5581C103.629 23.8932 103.892 24.1554 104.212 24.1554C104.533 24.1554 104.795 23.8932 104.795 23.5581V18.9397C104.795 18.7794 104.911 18.6629 105.072 18.6629H106.368C106.733 18.6629 107.068 18.8377 107.272 19.1145L110.987 23.9223C111.089 24.068 111.249 24.1554 111.424 24.1554C111.875 24.1554 112.138 23.6163 111.861 23.2667L108.685 19.1582C108.524 18.9543 108.656 18.6483 108.889 18.6046L108.903 18.59ZM107.781 17.6285H105.072C104.911 17.6285 104.795 17.5119 104.795 17.3517V13.1412C104.795 13.0538 104.868 12.981 104.955 12.981H108.306C108.801 12.981 109.253 13.0684 109.646 13.2432C110.069 13.4326 110.375 13.6803 110.622 14.0154C110.87 14.3505 110.987 14.7293 110.987 15.21C110.987 15.6908 110.841 16.1424 110.564 16.5067C110.287 16.8709 109.923 17.1477 109.428 17.3517C108.962 17.5556 108.393 17.6431 107.767 17.6431L107.781 17.6285Z" fill="#FAFAFA"/>
<path d="M121.607 12.5002C120.85 11.9903 119.976 11.728 118.97 11.728C117.965 11.728 117.076 11.9903 116.333 12.5002C115.576 13.0247 115.008 13.7531 114.6 14.7001C114.192 15.6617 113.988 16.7689 113.988 18.0364C113.988 19.3039 114.192 20.4112 114.6 21.3581C115.008 22.3051 115.576 23.0336 116.333 23.5581C117.091 24.0825 117.965 24.3448 118.97 24.3448C119.976 24.3448 120.85 24.0825 121.607 23.5581C122.365 23.0336 122.933 22.3051 123.341 21.3581C123.749 20.4112 123.953 19.3185 123.953 18.0364C123.953 16.7543 123.749 15.6617 123.341 14.7001C122.933 13.7531 122.365 13.0247 121.607 12.5002ZM122.248 20.7899C121.928 21.5767 121.491 22.1886 120.937 22.6256C120.384 23.0627 119.713 23.2958 118.956 23.2958C118.198 23.2958 117.543 23.0627 116.975 22.6256C116.406 22.1886 115.984 21.5767 115.678 20.7899C115.357 20.0032 115.212 19.0708 115.212 18.0218C115.212 16.9729 115.372 16.0405 115.678 15.2537C115.969 14.467 116.406 13.8405 116.975 13.4035C117.543 12.9664 118.198 12.7624 118.956 12.7624C119.713 12.7624 120.369 12.9664 120.937 13.4035C121.505 13.8405 121.928 14.4524 122.248 15.2392C122.54 16.0259 122.7 16.9583 122.7 18.0218C122.7 19.0854 122.54 19.9887 122.248 20.7899Z" fill="#FAFAFA"/>
<path d="M133.787 11.932H126.954C126.634 11.932 126.401 12.1942 126.401 12.5148V23.5581C126.401 23.8786 126.648 24.1408 126.954 24.1408C127.26 24.1408 127.508 23.8786 127.508 23.5581V18.4881C127.508 18.4006 127.581 18.3278 127.668 18.3278H131.704C131.981 18.3278 132.214 18.0947 132.214 17.8033C132.214 17.5119 131.981 17.2788 131.704 17.2788H127.668C127.581 17.2788 127.508 17.206 127.508 17.1186V13.1412C127.508 13.0538 127.581 12.981 127.668 12.981H133.787C134.064 12.981 134.297 12.7479 134.297 12.4565C134.297 12.1651 134.064 11.932 133.787 11.932Z" fill="#FAFAFA"/>
<path d="M142.747 23.0919H137.138C137.051 23.0919 136.978 23.019 136.978 22.9316V12.5148C136.978 12.1942 136.716 11.932 136.395 11.932C136.06 11.932 135.798 12.1942 135.798 12.5148V23.5581C135.798 23.8786 136.06 24.1408 136.38 24.1408H142.747C143.038 24.1408 143.272 23.9077 143.272 23.6163C143.272 23.325 143.038 23.0919 142.747 23.0919Z" fill="#FAFAFA"/>
<path d="M30.8426 5.4051C29.3274 3.86079 27.55 2.59328 25.5686 1.67544C25.4812 1.63173 25.4083 1.60259 25.3209 1.55888C24.9276 1.38406 24.5342 1.2238 24.1408 1.07811C23.019 0.670174 21.8389 0.364225 20.6151 0.189397C19.7556 0.058276 18.896 0 18.0073 0C8.07123 0 0 8.07123 0 17.9927C0 25.7289 4.89518 32.3286 11.7572 34.8782C12.5585 35.1841 13.4035 35.4172 14.2485 35.6066C15.4577 35.8689 16.7106 36 17.9927 36C24.8256 36 30.7843 32.1684 33.8292 26.5447C35.1987 24.0097 35.9854 21.0959 35.9854 18.0073C35.9854 13.1121 34.0186 8.66856 30.828 5.41967L30.8426 5.4051ZM15.1226 32.62C11.4075 32.62 7.83812 30.7989 5.36139 27.6228C3.23432 24.8256 2.1125 21.4747 2.1125 17.949C2.1125 11.932 5.44881 6.6726 10.3731 3.93363C10.5042 3.86079 10.6354 4.03561 10.5188 4.1376C10.0672 4.5601 9.63011 5.01174 9.22218 5.49251C6.36665 8.82881 4.72036 13.3598 4.70579 17.949C4.70579 23.8932 8.68312 30.3035 15.1081 30.3035C20.8337 30.3035 25.5103 24.7527 25.5103 17.949C25.5103 14.7438 24.4322 11.6698 22.6111 9.39701C22.5528 9.30959 22.6111 9.20761 22.7276 9.23675C25.8308 10.1546 28.1473 13.724 28.1473 17.9636C28.1473 21.7078 26.7924 25.4375 24.4176 28.2056C21.9555 31.0611 18.6629 32.6346 15.1372 32.6346L15.1226 32.62ZM12.6313 17.949C12.6313 13.7094 14.7001 10.038 17.6431 8.39174C18.0073 8.18778 18.4589 8.21692 18.794 8.46459L19.4205 8.9308C22.0138 10.8248 23.6309 14.2776 23.6309 17.9636C23.6309 22.2032 21.5621 25.8745 18.6192 27.5208C18.255 27.7248 17.8033 27.6957 17.4682 27.448L16.8418 26.9818C14.2485 25.0878 12.6459 21.635 12.6459 17.949H12.6313ZM34.1497 17.949C34.1497 23.966 30.8134 29.2254 25.8891 31.9644C25.758 32.0372 25.6269 31.8624 25.7434 31.7604C26.1951 31.3379 26.6321 30.8863 27.0401 30.4055C29.8956 27.0692 31.5419 22.5382 31.5565 17.949C31.5565 12.0049 27.5791 5.5945 21.1542 5.5945C15.4286 5.5945 10.7519 11.1453 10.7519 17.949C10.7519 21.1542 11.83 24.2283 13.6512 26.501C13.7094 26.5739 13.6512 26.6904 13.5346 26.6613C10.4314 25.7434 8.11493 22.1886 8.11493 17.9344C8.11493 14.1902 9.46985 10.4605 11.8446 7.707C14.3068 4.85148 17.5994 3.27803 21.1396 3.27803C24.8547 3.27803 28.4095 5.09915 30.9008 8.27519C33.0279 11.0724 34.1497 14.4233 34.1497 17.9344V17.949Z" fill="#FAFAFA"/>
<path d="M50.9187 12.5439C50.1174 12.034 49.1704 11.7717 48.1068 11.7717C47.0433 11.7717 46.0963 12.034 45.2805 12.5439C44.4646 13.0538 43.8527 13.7968 43.4011 14.7438C42.9494 15.6908 42.7309 16.8417 42.7309 18.1675C42.7309 19.4933 42.9494 20.6151 43.4011 21.5767C43.8381 22.5382 44.4646 23.2667 45.2805 23.7912C46.0963 24.3156 47.0287 24.5779 48.1068 24.5779C49.1849 24.5779 50.1174 24.3156 50.9187 23.7912C51.72 23.2667 52.3464 22.5382 52.7981 21.5767C53.2497 20.6151 53.4682 19.4933 53.4682 18.1675C53.4682 16.8417 53.2497 15.6908 52.7981 14.7438C52.3464 13.7968 51.72 13.0538 50.9187 12.5439ZM50.4525 20.4694C50.2193 21.1105 49.8988 21.5912 49.4909 21.9263C49.083 22.2614 48.6168 22.4362 48.1068 22.4362C47.5969 22.4362 47.1162 22.2614 46.7082 21.9263C46.3003 21.5912 45.9798 21.0959 45.7467 20.4694C45.5136 19.8284 45.397 19.0708 45.397 18.1675C45.397 17.2642 45.5136 16.5067 45.7467 15.8656C45.9798 15.2246 46.3003 14.7438 46.7082 14.4087C47.1162 14.0736 47.5824 13.8988 48.1068 13.8988C48.6313 13.8988 49.0975 14.0736 49.4909 14.4087C49.8988 14.7438 50.2193 15.2246 50.4525 15.8656C50.6856 16.4921 50.8021 17.2642 50.8021 18.1821C50.8021 19.0999 50.6856 19.843 50.4525 20.484V20.4694Z" fill="#FAFAFA"/>
<path d="M62.1076 12.4127C62.0348 12.1651 61.8163 11.9902 61.554 11.9902H58.6257C58.3634 11.9902 58.1449 12.1651 58.072 12.4127L55.0417 23.6309C54.9397 23.9951 55.2165 24.3593 55.5953 24.3593H56.9502C57.2125 24.3593 57.4456 24.1845 57.5038 23.9368L57.9701 22.174C58.0429 21.9263 58.2614 21.7515 58.5237 21.7515H61.6123C61.8745 21.7515 62.1076 21.9263 62.1659 22.1885L62.6176 23.9514C62.6904 24.1991 62.9089 24.3885 63.1712 24.3885H64.5989C64.9777 24.3885 65.2546 24.0242 65.1526 23.66L62.1076 12.4419V12.4127ZM60.7673 19.6098H59.3832C59.0044 19.6098 58.7276 19.2456 58.8296 18.8814L59.3395 16.9437L59.5289 16.1715C59.6746 15.5888 60.5051 15.5888 60.6507 16.1715L60.8401 16.9437L61.3355 18.8814C61.4375 19.2456 61.1607 19.5953 60.7819 19.5953L60.7673 19.6098Z" fill="#FAFAFA"/>
<path d="M85.1704 11.9902H79.605C79.2845 11.9902 79.0223 12.2525 79.0223 12.573V13.5491C79.0223 13.8696 79.2845 14.1319 79.605 14.1319H80.5229C80.8434 14.1319 81.1056 14.3941 81.1056 14.7146V21.6786C81.1056 21.9991 80.8434 22.2614 80.5229 22.2614H79.605C79.2845 22.2614 79.0223 22.5236 79.0223 22.8441V23.8203C79.0223 24.1408 79.2845 24.403 79.605 24.403H85.1704C85.4909 24.403 85.7531 24.1408 85.7531 23.8203V22.8441C85.7531 22.5236 85.4909 22.2614 85.1704 22.2614H84.2525C83.932 22.2614 83.6698 21.9991 83.6698 21.6786V14.7146C83.6698 14.3941 83.932 14.1319 84.2525 14.1319H85.1704C85.4909 14.1319 85.7531 13.8696 85.7531 13.5491V12.573C85.7531 12.2525 85.4909 11.9902 85.1704 11.9902Z" fill="#FAFAFA"/>
<path d="M96.4322 18.0364C96.0389 17.7596 95.6018 17.5411 95.1356 17.3808C94.6694 17.2206 94.2032 17.0895 93.7224 16.9729C93.2562 16.8564 92.8191 16.7398 92.4257 16.6232C92.0324 16.4921 91.7119 16.3319 91.4788 16.1425C91.2457 15.9385 91.1291 15.6763 91.1291 15.3412C91.1291 14.875 91.3039 14.5253 91.6536 14.2776C92.0032 14.03 92.4403 13.8988 92.9794 13.8988C93.3436 13.8988 93.6932 13.9571 93.9992 14.1174C94.4071 14.3359 94.6839 14.6564 94.8442 14.8895C94.9462 15.0498 95.1356 15.1372 95.325 15.1372H96.8839C97.2918 15.1372 97.5686 14.7293 97.4229 14.3651C97.3209 14.1028 97.1898 13.8551 97.015 13.622C96.5779 13.0247 96.0097 12.5585 95.3104 12.238C94.6111 11.9175 93.8389 11.7572 92.9939 11.7572C92.0907 11.7572 91.2894 11.9175 90.6192 12.238C89.949 12.5585 89.4245 12.9956 89.0457 13.5346C88.6669 14.0882 88.4921 14.7001 88.4921 15.3849C88.4921 16.0696 88.6087 16.5941 88.8418 17.0166C89.0749 17.4537 89.3954 17.7888 89.7888 18.051C90.1821 18.3133 90.6192 18.5172 91.0854 18.692C91.5516 18.8523 92.0324 18.998 92.4986 19.1145C92.9648 19.2311 93.4019 19.3622 93.7952 19.4933C94.1886 19.6245 94.5091 19.7993 94.7422 20.0178C94.9753 20.2364 95.0919 20.5132 95.0919 20.8628C95.0919 21.3436 94.917 21.7224 94.5528 21.9992C94.1886 22.276 93.7078 22.4071 93.1105 22.4071C92.3675 22.4071 91.7993 22.1886 91.4059 21.7515C91.2457 21.5621 91.1145 21.3436 91.0271 21.0959C90.9397 20.8483 90.7066 20.6734 90.4444 20.6734H89.0457C88.6669 20.6734 88.3901 21.0377 88.4921 21.4165C88.5795 21.7515 88.7107 22.0721 88.8709 22.3489C89.2643 23.0482 89.8179 23.5872 90.5318 23.966C91.2457 24.3448 92.1052 24.5342 93.0959 24.5342C93.9992 24.5342 94.8005 24.374 95.4998 24.068C96.1991 23.7621 96.7527 23.325 97.1607 22.7714C97.5686 22.2177 97.758 21.5767 97.758 20.8483C97.758 20.1198 97.6414 19.5516 97.3938 19.1C97.1461 18.6483 96.8256 18.2841 96.4322 18.0073V18.0364Z" fill="#FAFAFA"/>
<path d="M75.2489 18.0364C74.8555 17.7596 74.4185 17.5411 73.9522 17.3808C73.486 17.2206 73.0198 17.0895 72.5391 16.9729C72.0728 16.8564 71.6358 16.7398 71.2424 16.6232C70.8491 16.4921 70.5285 16.3319 70.2954 16.1425C70.0623 15.9385 69.9458 15.6763 69.9458 15.3412C69.9458 14.875 70.1206 14.5253 70.4703 14.2776C70.8199 14.03 71.257 13.8988 71.796 13.8988C72.1603 13.8988 72.5099 13.9571 72.8159 14.1174C73.2238 14.3359 73.5006 14.6564 73.6609 14.8895C73.7629 15.0498 73.9522 15.1372 74.1416 15.1372H75.7005C76.1085 15.1372 76.3853 14.7293 76.2396 14.3651C76.1376 14.1028 76.0065 13.8551 75.8316 13.622C75.3946 13.0247 74.8264 12.5585 74.1271 12.238C73.4278 11.9175 72.6556 11.7572 71.8106 11.7572C70.9073 11.7572 70.106 11.9175 69.4359 12.238C68.7657 12.5585 68.2412 12.9956 67.8624 13.5346C67.4836 14.0882 67.3088 14.7001 67.3088 15.3849C67.3088 16.0696 67.4253 16.5941 67.6584 17.0166C67.8915 17.4537 68.2121 17.7888 68.6054 18.051C68.9988 18.3133 69.4359 18.5172 69.9021 18.692C70.3683 18.8523 70.8491 18.998 71.3153 19.1145C71.7815 19.2311 72.2185 19.3622 72.6119 19.4933C73.0053 19.6245 73.3258 19.7993 73.5589 20.0178C73.792 20.2364 73.9085 20.5132 73.9085 20.8628C73.9085 21.3436 73.7337 21.7224 73.3695 21.9992C73.0053 22.276 72.5245 22.4071 71.9272 22.4071C71.1841 22.4071 70.6159 22.1886 70.2226 21.7515C70.0623 21.5621 69.9312 21.3436 69.8438 21.0959C69.7564 20.8483 69.5233 20.6734 69.261 20.6734H67.8624C67.4836 20.6734 67.2068 21.0377 67.3088 21.4165C67.3962 21.7515 67.5273 22.0721 67.6876 22.3489C68.0809 23.0482 68.6346 23.5872 69.3484 23.966C70.0623 24.3448 70.9219 24.5342 71.9126 24.5342C72.8159 24.5342 73.6172 24.374 74.3165 24.068C75.0158 23.7621 75.5694 23.325 75.9773 22.7714C76.3853 22.2177 76.5747 21.5767 76.5747 20.8483C76.5747 20.1198 76.4581 19.5516 76.2104 19.1C75.9628 18.6483 75.6423 18.2841 75.2489 18.0073V18.0364Z" fill="#FAFAFA"/>
</g>
<defs>
<clipPath id="clip0_2221_1486">
<rect width="143.272" height="36" fill="white"/>
</clipPath>
</defs>
</svg>
