<?xml version="1.0" encoding="UTF-8"?><svg id="Layer_2" xmlns="http://www.w3.org/2000/svg" viewBox="0 0 412 128"><defs><style>.cls-1{fill:#fff;}</style></defs><path class="cls-1" d="M222.83,44.41c-2.87-1.84-6.22-2.76-10.07-2.76s-7.21.92-10.1,2.76-5.13,4.47-6.71,7.88c-1.58,3.42-2.37,7.49-2.37,12.22s.79,8.73,2.37,12.15c1.58,3.42,3.82,6.06,6.71,7.91,2.89,1.86,6.26,2.78,10.1,2.78s7.19-.93,10.07-2.78c2.87-1.86,5.11-4.5,6.71-7.91,1.6-3.42,2.41-7.47,2.41-12.15s-.8-8.85-2.41-12.25c-1.6-3.4-3.84-6.02-6.71-7.85ZM221.16,72.73c-.82,2.28-1.96,4.02-3.42,5.22-1.45,1.21-3.11,1.81-4.97,1.81s-3.53-.6-5-1.81c-1.48-1.21-2.63-2.94-3.45-5.22-.82-2.28-1.24-5.02-1.24-8.23s.41-5.95,1.24-8.23c.82-2.28,1.97-4.02,3.45-5.22,1.48-1.21,3.14-1.81,5-1.81s3.52.6,4.97,1.81c1.45,1.21,2.6,2.93,3.42,5.19.82,2.26,1.23,5.01,1.23,8.26s-.41,5.95-1.23,8.23Z"/><path class="cls-1" d="M269.16,42.42h-28.16c-1.17,0-2.12.95-2.12,2.12v39.94c0,1.17.95,2.12,2.12,2.12h5.01c1.17,0,2.13-.95,2.12-2.13v-14.81c-.01-1.17.94-2.12,2.11-2.12h11.07c1.17,0,2.12-.95,2.12-2.12v-3.35c0-1.17-.95-2.12-2.12-2.12h-11.07c-1.17,0-2.12-.95-2.12-2.12v-5.69c0-1.17.95-2.12,2.12-2.12h18.92c1.17,0,2.12-.95,2.12-2.12v-3.35c0-1.17-.95-2.12-2.12-2.12Z"/><path class="cls-1" d="M309,79.01h-19.16c-1.18,0-2.13-.95-2.14-2.12h0v-32.34c0-1.17-.95-2.12-2.12-2.12h-5c-1.17,0-2.12.95-2.12,2.12v39.94c0,1.17.95,2.12,2.12,2.12h28.42c1.17,0,2.12-.95,2.12-2.12v-3.35c0-1.17-.95-2.12-2.12-2.12Z"/><path class="cls-1" d="M180.94,70.03h0c-.61-.97-.32-2.26.65-2.88.91-.58,1.65-1.26,2.53-2.04,1.52-1.33,2.68-2.8,3.48-4.43.8-1.62,1.2-3.3,1.2-5.03,0-2.79-.69-5.16-2.06-7.12-1.37-1.96-3.26-3.47-5.67-4.52-2.41-1.06-5.15-1.58-8.23-1.58h-15.8c-1.17,0-2.11.95-2.11,2.11v39.96c0,1.17.95,2.11,2.11,2.11h4.95c1.17,0,2.11-.95,2.11-2.11v-12.95c0-1.16.94-2.1,2.1-2.1h3.23c.71,0,1.36.35,1.76.94,1.98,2.97,7.57,12.14,9.43,15.2.38.63,1.07,1.01,1.81,1.01h5.02c1.66,0,2.67-1.82,1.79-3.23l-8.32-13.34ZM178.35,58.88c-.63.93-1.5,1.66-2.6,2.18-1.1.53-2.38.79-3.86.79h-5.68c-1.17,0-2.11-.95-2.11-2.11v-7.61c0-1.17.95-2.11,2.11-2.11h6.63c1.22,0,2.32.24,3.29.7.97.47,1.74,1.12,2.31,1.96.57.84.85,1.84.85,2.97,0,1.23-.32,2.3-.95,3.23Z"/><path class="cls-1" d="M90.91,5.97h0c-.29-.15-.58-.28-.88-.41-1.39-.62-2.78-1.21-4.22-1.73-4.01-1.46-8.2-2.52-12.54-3.15-3.03-.44-6.13-.68-9.28-.68C28.71,0,0,28.71,0,64c0,27.49,17.43,50.99,41.82,60.03,2.87,1.06,5.84,1.92,8.88,2.57,4.3.91,8.75,1.4,13.31,1.4,24.31,0,45.5-13.63,56.32-33.64,4.89-9.04,7.67-19.38,7.67-30.36,0-17.41-7-33.21-18.32-44.77-5.37-5.48-11.73-9.99-18.77-13.26ZM53.78,115.99c-13.23,0-25.88-6.48-34.69-17.76-7.56-9.97-11.56-21.88-11.56-34.41,0-21.41,11.87-40.1,29.37-49.83.46-.26.92.36.54.72-1.6,1.51-3.13,3.12-4.6,4.83-10.14,11.86-15.99,28-16.04,44.28,0,21.14,14.14,43.96,36.99,43.96,20.39,0,36.97-19.72,36.97-43.96,0-11.39-3.82-22.32-10.34-30.44-.23-.29.04-.69.39-.59,11.02,3.26,19.26,15.93,19.26,31.03,0,13.33-4.84,26.59-13.26,36.4-8.74,10.16-20.47,15.77-33.03,15.77ZM44.91,63.82h0c0-15.1,7.33-28.13,17.85-33.98,1.3-.73,2.91-.63,4.11.24l2.25,1.64c9.22,6.73,14.95,19.03,14.95,32.1,0,15.1-7.33,28.13-17.85,33.98-1.3.73-2.9.64-4.11-.24l-2.25-1.64c-9.22-6.73-14.95-19.03-14.95-32.1ZM121.44,63.81h0c0,21.41-11.87,40.11-29.37,49.84-.46.26-.92-.36-.54-.72,1.6-1.51,3.13-3.12,4.6-4.83,10.14-11.86,15.99-28,16.04-44.28,0-21.14-14.14-43.96-36.99-43.96-20.38,0-36.97,19.72-36.97,43.96,0,11.39,3.82,22.32,10.34,30.44.23.29-.04.69-.39.59-11.02-3.26-19.26-15.93-19.26-31.01,0-13.32,4.84-26.59,13.26-36.39,8.74-10.17,20.47-15.76,33.04-15.76,13.22,0,25.87,6.48,34.71,17.78,7.56,9.95,11.54,21.83,11.53,34.37Z"/><path class="cls-1" d="M404,41.65h-69.33c-4.41,0-8,3.59-8,8v29.71c0,4.41,3.59,8,8,8h69.33c4.41,0,8-3.59,8-8v-29.71c0-4.41-3.59-8-8-8ZM408,79.35c0,2.21-1.79,4-4,4h-69.33c-2.21,0-4-1.79-4-4v-29.71c0-2.21,1.79-4,4-4h69.33c2.21,0,4,1.79,4,4v29.71Z"/><path class="cls-1" d="M395.13,53.73c-1.24-.6-2.69-.9-4.35-.9h-8.67v22.34h4.03v-7.78h4.45c1.71,0,3.19-.3,4.45-.9,1.28-.62,2.27-1.48,2.98-2.59.7-1.11,1.06-2.4,1.06-3.87s-.34-2.72-1.02-3.81c-.68-1.09-1.65-1.92-2.91-2.5ZM393.69,62.94c-.79.73-1.83,1.09-3.14,1.09h-4.42v-7.84h4.64c1.24,0,2.23.35,2.98,1.06.75.7,1.12,1.63,1.12,2.78s-.39,2.17-1.18,2.91Z"/><path class="cls-1" d="M345.57,52.83l-6.5,22.34h4.03l1.49-5.18h7.76l1.47,5.18h4.13l-6.5-22.34h-5.89ZM345.56,66.62l1.58-5.5,1.38-5.28,1.31,5.25,1.57,5.54h-5.84Z"/><path class="cls-1" d="M374.32,53.73c-1.24-.6-2.69-.9-4.35-.9h-8.67v22.34h4.03v-7.78h4.45c1.71,0,3.19-.3,4.45-.9,1.28-.62,2.27-1.48,2.98-2.59s1.06-2.4,1.06-3.87-.34-2.72-1.02-3.81c-.68-1.09-1.65-1.92-2.91-2.5ZM372.88,62.94c-.79.73-1.83,1.09-3.14,1.09h-4.42v-7.84h4.64c1.24,0,2.23.35,2.98,1.06.75.7,1.12,1.63,1.12,2.78s-.39,2.17-1.18,2.91Z"/></svg>