<svg width="98" height="36" viewBox="0 0 98 36" fill="none" xmlns="http://www.w3.org/2000/svg">
    <g clip-path="url(#clip0_3231_4628)">
        <g clip-path="url(#clip1_3231_4628)">
            <path d="M30.8478 5.40882C29.3359 3.86636 27.5485 2.6009 25.5687 1.67805C25.4885 1.63723 25.4069 1.59932 25.3223 1.56287C24.9331 1.38938 24.5394 1.22318 24.137 1.07739C23.0101 0.66772 21.8292 0.368849 20.6104 0.190985C19.7575 0.0670635 18.8871 0 18.0007 0C8.07532 0 0 8.07533 0 18.0007C0 25.7334 4.90147 32.3421 11.7609 34.8847C12.5671 35.1836 13.401 35.4256 14.2583 35.6078C15.4669 35.8644 16.7178 36.0015 18.0007 36.0015C24.8383 36.0015 30.7953 32.1686 33.8423 26.5411C35.2186 23.9985 36.0015 21.09 36.0015 18.0022C36.0015 13.1051 34.0333 8.65994 30.8492 5.41174L30.8478 5.40882ZM5.36946 27.6302C3.24238 24.8252 2.11833 21.4778 2.11833 17.9512C2.11833 11.9286 5.45693 6.67282 10.3803 3.93488C10.51 3.86199 10.6398 4.03548 10.5304 4.13753C10.0814 4.56032 9.6484 5.01373 9.23727 5.49629C6.38416 8.83344 4.73964 13.3719 4.72506 17.9512C4.72506 23.8965 8.70222 30.3142 15.1272 30.3142C20.8611 30.3142 25.5264 24.7683 25.5264 17.9512C25.5264 14.7481 24.4519 11.672 22.6194 9.39035C22.5552 9.31017 22.631 9.19499 22.7302 9.22561C25.8297 10.1426 28.1477 13.7072 28.1477 17.9512C28.1477 21.6994 26.7875 25.4302 24.417 28.1886C21.9589 31.0475 18.6597 32.622 15.1272 32.6235C11.4081 32.6235 7.84789 30.7997 5.368 27.6302H5.36946ZM30.9163 8.28089C33.0419 11.0801 34.163 14.4216 34.1601 17.9468C34.1601 23.9694 30.8215 29.2251 25.8982 31.9631C25.7684 32.036 25.6387 31.8625 25.748 31.7604C26.1985 31.3362 26.6301 30.8842 27.0412 30.4017C29.8943 27.0645 31.5388 22.5261 31.5534 17.9468C31.5534 12.0015 27.5762 5.58377 21.1513 5.58377C15.4173 5.58377 10.752 11.1296 10.752 17.9468C10.752 21.1498 11.8265 24.226 13.6591 26.5076C13.7232 26.5878 13.6474 26.703 13.5483 26.6723C10.4488 25.7553 8.13072 22.1922 8.13072 17.9497C8.13072 14.2029 9.49095 10.4721 11.8615 7.71377C14.3195 4.85482 17.6202 3.28028 21.1542 3.28028C24.8718 3.28028 28.4291 5.10266 30.9177 8.27943L30.9163 8.28089ZM23.6443 17.9512C23.6443 22.1966 21.5813 25.8617 18.6247 27.5063C18.2588 27.7104 17.8068 27.6841 17.4686 27.4377L16.8359 26.9756C14.2437 25.0832 12.6327 21.6236 12.6327 17.9468C12.6327 13.7014 14.6957 10.0362 17.6523 8.39169C18.0182 8.18758 18.4702 8.21383 18.8084 8.46021L19.4411 8.92091C22.0347 10.8133 23.6457 14.2729 23.6457 17.9497L23.6443 17.9512Z" fill="#03FFFF"/>
            <path d="M50.9348 12.5481C50.1315 12.0335 49.1926 11.7769 48.1181 11.7769C47.0436 11.7769 46.1004 12.0335 45.2912 12.5481C44.4821 13.0613 43.8567 13.7976 43.4135 14.754C42.9703 15.7103 42.7487 16.8504 42.7487 18.1742C42.7487 19.498 42.9703 20.6191 43.4135 21.5769C43.8567 22.5333 44.4821 23.2725 45.2912 23.7915C46.1004 24.312 47.0422 24.5715 48.1181 24.5715C49.194 24.5715 50.1315 24.312 50.9348 23.7915C51.7381 23.2725 52.3635 22.5333 52.8126 21.5769C53.2616 20.6206 53.4861 19.4863 53.4861 18.1742C53.4861 16.8621 53.2616 15.6972 52.8126 14.7452C52.3635 13.7947 51.7381 13.0613 50.9348 12.5481ZM50.4653 20.4777C50.235 21.1162 49.9157 21.6032 49.509 21.94C49.1022 22.2767 48.6371 22.4444 48.1181 22.4444C47.5991 22.4444 47.1311 22.2767 46.7185 21.94C46.3045 21.6032 45.9837 21.1162 45.7534 20.4777C45.523 19.8391 45.4079 19.0723 45.4079 18.1742C45.4079 17.2761 45.523 16.5078 45.7534 15.8707C45.9837 15.2321 46.3059 14.7452 46.7185 14.4084C47.1311 14.0717 47.5991 13.904 48.1181 13.904C48.6371 13.904 49.1022 14.0731 49.509 14.4084C49.9172 14.7452 50.235 15.2292 50.4653 15.862C50.6957 16.4947 50.8109 17.2645 50.8109 18.1742C50.8109 19.0839 50.6957 19.8406 50.4653 20.4777Z" fill="#03FFFF"/>
            <path d="M58.0785 12.4155L55.0417 23.6326C54.9426 23.9985 55.2181 24.3586 55.5972 24.3586H56.953C57.214 24.3586 57.4429 24.1822 57.5099 23.93L57.9736 22.1659C58.0406 21.9137 58.2681 21.7373 58.5305 21.7373H61.6256C61.888 21.7373 62.1169 21.9152 62.1825 22.1688L62.6374 23.9285C62.703 24.1822 62.9319 24.3601 63.1943 24.3601H64.6187C64.9977 24.3601 65.2733 24 65.1741 23.634L62.1213 12.4169C62.0528 12.1662 61.8253 11.9927 61.5658 11.9927H58.6354C58.3759 11.9927 58.1485 12.1662 58.08 12.4169L58.0785 12.4155ZM59.3921 19.6102C59.0145 19.6102 58.7404 19.253 58.8352 18.8886L59.344 16.9525L59.5291 16.1812C59.6706 15.5937 60.5074 15.5937 60.6473 16.1812L60.8325 16.9525L61.334 18.8915C61.4288 19.2559 61.1532 19.6102 60.7771 19.6102H59.3906H59.3921Z" fill="#03FFFF"/>
            <path d="M79.0519 12.5656V13.541C79.0519 13.8588 79.3099 14.1168 79.6278 14.1168H80.5506C80.8684 14.1168 81.1265 14.3749 81.1265 14.6927V21.6571C81.1265 21.9749 80.8684 22.233 80.5506 22.233H79.6278C79.3099 22.233 79.0519 22.491 79.0519 22.8088V23.7842C79.0519 24.102 79.3099 24.3601 79.6278 24.3601H85.1926C85.5104 24.3601 85.7684 24.102 85.7684 23.7842V22.8088C85.7684 22.491 85.5104 22.233 85.1926 22.233H84.2697C83.9519 22.233 83.6938 21.9749 83.6938 21.6571V14.6927C83.6938 14.3749 83.9519 14.1168 84.2697 14.1168H85.1926C85.5104 14.1168 85.7684 13.8588 85.7684 13.541V12.5656C85.7684 12.2478 85.5104 11.9897 85.1926 11.9897H79.6278C79.3099 11.9897 79.0519 12.2478 79.0519 12.5656Z" fill="#03FFFF"/>
            <path d="M97.4142 19.1408C97.1722 18.6859 96.8529 18.32 96.4578 18.0415C96.0613 17.7645 95.6312 17.5458 95.1647 17.3855C94.6981 17.2266 94.2287 17.0895 93.7563 16.9787C93.284 16.8665 92.8495 16.7484 92.4544 16.6245C92.0593 16.5005 91.743 16.3387 91.5068 16.1375C91.2706 15.9363 91.1525 15.671 91.1525 15.34C91.1525 14.8793 91.326 14.5251 91.6759 14.2772C92.0243 14.0294 92.4646 13.9055 92.9968 13.9055C93.3627 13.9055 93.7097 13.9652 94.0158 14.1271C94.4226 14.3414 94.6996 14.6679 94.8556 14.9027C94.9606 15.063 95.1413 15.1563 95.3323 15.1563H96.885C97.2874 15.1563 97.5731 14.751 97.4244 14.3778C97.3194 14.1125 97.1853 13.8661 97.0206 13.6387C96.5832 13.0366 96.0132 12.5759 95.3105 12.2566C94.6077 11.9373 93.8365 11.7784 92.9982 11.7784C92.0885 11.7784 91.2968 11.9373 90.6233 12.2566C89.9497 12.5759 89.4278 13.0089 89.0546 13.5585C88.6828 14.1081 88.4962 14.7248 88.4962 15.41C88.4962 16.0952 88.6143 16.6172 88.8505 17.0487C89.0867 17.4802 89.403 17.8258 89.7981 18.0853C90.1932 18.3448 90.6277 18.5576 91.1 18.7238C91.5724 18.8886 92.0418 19.0314 92.5084 19.1495C92.9749 19.2676 93.4064 19.3945 93.8015 19.5301C94.1966 19.6656 94.513 19.8406 94.7492 20.0534C94.9853 20.2663 95.1034 20.5491 95.1034 20.9034C95.1034 21.3874 94.9241 21.7665 94.5625 22.0376C94.2024 22.3088 93.7213 22.4444 93.1178 22.4444C92.3742 22.4444 91.8071 22.2257 91.4164 21.7883C91.2546 21.6061 91.1292 21.386 91.0373 21.1337C90.9455 20.8815 90.7166 20.7182 90.4527 20.7182H89.0575C88.6741 20.7182 88.4014 21.0842 88.5035 21.4545C88.5968 21.7898 88.7222 22.1033 88.884 22.3919C89.2733 23.0888 89.8287 23.6268 90.5489 24.0044C91.2691 24.382 92.1264 24.5715 93.1178 24.5715C94.0158 24.5715 94.8162 24.4155 95.5189 24.102C96.2216 23.7886 96.7742 23.3585 97.1751 22.8089C97.576 22.2592 97.7772 21.6192 97.7772 20.8859C97.7772 20.1526 97.6562 19.5957 97.4142 19.1408Z" fill="#03FFFF"/>
            <path d="M76.2163 19.1408C75.9743 18.6859 75.655 18.32 75.2599 18.0415C74.8633 17.7645 74.4333 17.5458 73.9667 17.3855C73.5002 17.2266 73.0307 17.0895 72.5584 16.9787C72.086 16.8665 71.6516 16.7484 71.2565 16.6245C70.8614 16.5005 70.545 16.3387 70.3088 16.1375C70.0727 15.9363 69.9546 15.671 69.9546 15.34C69.9546 14.8793 70.1281 14.5251 70.478 14.2772C70.8264 14.0294 71.2667 13.9055 71.7988 13.9055C72.1648 13.9055 72.5117 13.9652 72.8179 14.1271C73.2246 14.3414 73.5017 14.6679 73.6576 14.9027C73.7626 15.063 73.9434 15.1563 74.1344 15.1563H75.6871C76.0894 15.1563 76.3752 14.751 76.2265 14.3778C76.1215 14.1125 75.9874 13.8661 75.8226 13.6387C75.3853 13.0366 74.8152 12.5759 74.1125 12.2566C73.4098 11.9373 72.6386 11.7784 71.8003 11.7784C70.8905 11.7784 70.0989 11.9373 69.4254 12.2566C68.7518 12.5759 68.2299 13.0089 67.8567 13.5585C67.4849 14.1081 67.2983 14.7248 67.2983 15.41C67.2983 16.0952 67.4164 16.6172 67.6525 17.0487C67.8887 17.4802 68.2051 17.8258 68.6002 18.0853C68.9953 18.3448 69.4297 18.5576 69.9021 18.7238C70.3744 18.8886 70.8439 19.0314 71.3104 19.1495C71.777 19.2676 72.2085 19.3945 72.6036 19.5301C72.9987 19.6656 73.315 19.8406 73.5512 20.0534C73.7874 20.2663 73.9055 20.5491 73.9055 20.9034C73.9055 21.3874 73.7262 21.7665 73.3646 22.0376C73.0045 22.3088 72.5234 22.4444 71.9198 22.4444C71.1763 22.4444 70.6092 22.2257 70.2185 21.7883C70.0566 21.6061 69.9312 21.386 69.8394 21.1337C69.749 20.8859 69.5187 20.7182 69.2548 20.7182H67.8596C67.4761 20.7182 67.2035 21.0842 67.3056 21.4545C67.3989 21.7898 67.5242 22.1033 67.6861 22.3919C68.0753 23.0888 68.6308 23.6268 69.351 24.0044C70.0712 24.382 70.9285 24.5715 71.9198 24.5715C72.8179 24.5715 73.6183 24.4155 74.321 24.102C75.0237 23.7886 75.5763 23.3585 75.9772 22.8089C76.3781 22.2592 76.5793 21.6192 76.5793 20.8859C76.5793 20.1526 76.4583 19.5957 76.2163 19.1408Z" fill="#03FFFF"/>
        </g>
    </g>
    <defs>
        <clipPath id="clip0_3231_4628">
            <rect width="97.78" height="36" fill="white"/>
        </clipPath>
        <clipPath id="clip1_3231_4628">
            <rect width="97.7772" height="36" fill="white"/>
        </clipPath>
    </defs>
</svg>
